<?xml version="1.0" encoding="UTF-8"?>
<!DOCTYPE svg PUBLIC "-//W3C//DTD SVG 1.1//EN" "http://www.w3.org/Graphics/SVG/1.1/DTD/svg11.dtd">
<!-- Creator: CorelDRAW X7 -->
<svg xmlns="http://www.w3.org/2000/svg" xml:space="preserve" width="150mm" height="150mm" version="1.1" style="shape-rendering:geometricPrecision; text-rendering:geometricPrecision; image-rendering:optimizeQuality; fill-rule:evenodd; clip-rule:evenodd"
viewBox="0 0 15000 15000"
 xmlns:xlink="http://www.w3.org/1999/xlink">
 <defs>
  <style type="text/css">
   <![CDATA[
    .str0 {stroke:#2B2A29;stroke-width:1000}
    .str1 {stroke:#2B2A29;stroke-width:20}
    .str2 {stroke:#2B2A29;stroke-width:10}
    .fil0 {fill:none}
    .fil5 {fill:#FEFEFE}
    .fil6 {fill:#2B2A29}
    .fil2 {fill:#E31E24;fill-rule:nonzero}
    .fil1 {fill:#B62526;fill-rule:nonzero}
    .fil4 {fill:#393185;fill-rule:nonzero}
    .fil3 {fill:#332C6A;fill-rule:nonzero}
   ]]>
  </style>
 </defs>
 <g id="Layer_x0020_1">
  <metadata id="CorelCorpID_0Corel-Layer"/>
  <g id="_1509319168928">
   <circle class="fil0 str0" cx="7405" cy="7573" r="6623"/>
   <path class="fil0 str0" d="M6075 2548c0,0 1766,13471 5605,8123"/>
   <g>
    <g>
     <path class="fil1 str1" d="M11075 5768l-3759 1902 -157 -411 3916 -1491zm-1880 951m-1958 745m1880 -951"/>
     <path class="fil2 str1" d="M11059 5774l-4073 1079 157 412 3916 -1491zm-2036 539m-1958 746m2036 -540"/>
     <path class="fil3 str1" d="M3227 8756l4073 -1080 -157 -411 -3916 1491zm2037 -540m1957 -745m-2036 539"/>
     <path class="fil4 str1" d="M3227 8756l3759 -1903 157 412 -3916 1491zm1880 -951m1958 -746m-1880 951"/>
     <circle class="fil5 str1" transform="matrix(0.748595 1.96595 -1.96595 0.748595 7143.13 7264.73)" r="83"/>
    </g>
    <circle class="fil5 str1" cx="7159" cy="7259" r="242"/>
   </g>
   <ellipse class="fil6 str2" transform="matrix(6.94673 -0.85276 0.898983 6.58955 6070.77 2526.34)" rx="71" ry="93"/>
   <ellipse class="fil6 str2" transform="matrix(7.93638 1.70879 -2.81197 7.1785 11588.1 10787.8)" rx="65" ry="81"/>
  </g>
 </g>
</svg>
